<?xml version="1.0" encoding="iso-8859-1"?>
<!-- Generator: Adobe Illustrator 19.0.0, SVG Export Plug-In . SVG Version: 6.00 Build 0)  -->
<svg version="1.1" id="Capa_1" xmlns="http://www.w3.org/2000/svg" xmlns:xlink="http://www.w3.org/1999/xlink" x="0px" y="0px"
	 viewBox="0 0 512 512" style="enable-background:new 0 0 512 512;" xml:space="preserve">
<g>
	<g>
		<path d="M440.371,72.146h-3.381l-7.313-14.626c-5.378-10.756-16.19-17.438-28.217-17.438h-91.215l-4.233-21.164
			C303.82,7.956,294.116,0,282.938,0h-53.875c-11.179,0-20.883,7.956-23.075,18.917l-4.233,21.164H110.54
			c-12.027,0-22.839,6.683-28.217,17.438L75.01,72.146h-3.381c-4.142,0-7.5,3.357-7.5,7.5s3.358,7.5,7.5,7.5h8.945l22.792,402.652
			C104.07,502.248,114.39,512,126.86,512h258.28c12.47,0,22.79-9.752,23.495-22.202l22.792-402.652h0.906
			c0.01,0,0.019,0.002,0.028,0.002c0.011,0,0.023-0.002,0.034-0.002h7.976c4.142,0,7.5-3.357,7.5-7.5S444.513,72.146,440.371,72.146
			z M220.696,21.858c0.794-3.974,4.313-6.858,8.366-6.858h53.875c4.053,0,7.572,2.885,8.366,6.858l3.644,18.223h-77.896
			L220.696,21.858z M368.221,87.146H416.4L393.659,488.95c-0.256,4.514-3.998,8.05-8.519,8.05H126.86
			c-4.521,0-8.263-3.536-8.519-8.05L95.597,87.146h240.564c4.142,0,7.5-3.357,7.5-7.5s-3.358-7.5-7.5-7.5H91.78l3.958-7.917
			c2.821-5.643,8.493-9.147,14.801-9.147h97.366c0.024,0,0.049,0,0.073,0h96.087c0.008,0,0.015,0.001,0.022,0.001
			c0.007,0,0.013-0.001,0.02-0.001h97.351c6.309,0,11.98,3.505,14.801,9.147l3.958,7.917h-51.996c-4.142,0-7.5,3.357-7.5,7.5
			S364.079,87.146,368.221,87.146z"/>
	</g>
</g>
<g>
	<g>
		<path d="M143.252,111.398c-0.169-4.138-3.677-7.344-7.8-7.187c-4.139,0.17-7.357,3.662-7.188,7.801l14.744,360.73
			c0.165,4.034,3.487,7.193,7.488,7.193c0.104,0,0.208-0.002,0.312-0.006c4.139-0.17,7.357-3.662,7.188-7.801L143.252,111.398z"/>
	</g>
</g>
<g>
	<g>
		<path d="M376.548,104.212c-4.118-0.154-7.63,3.049-7.8,7.188l-14.744,360.73c-0.169,4.138,3.049,7.63,7.188,7.8
			c0.104,0.004,0.208,0.006,0.312,0.006c4.001,0,7.323-3.159,7.488-7.193l14.744-360.73
			C383.905,107.874,380.687,104.382,376.548,104.212z"/>
	</g>
</g>
<g>
	<g>
		<path d="M199.37,111.542c-0.09-4.142-3.519-7.41-7.662-7.335c-4.141,0.09-7.425,3.521-7.334,7.661l6.814,312.628
			c0.088,4.086,3.428,7.337,7.495,7.337c0.055,0,0.111-0.001,0.167-0.002c4.141-0.09,7.425-3.521,7.334-7.661L199.37,111.542z"/>
	</g>
</g>
<g>
	<g>
		<path d="M206.883,456.241c-0.09-4.142-3.549-7.414-7.662-7.335c-4.141,0.09-7.425,3.521-7.334,7.661l0.35,16.031
			c0.089,4.086,3.429,7.337,7.495,7.337c0.056,0,0.111-0.001,0.167-0.002c4.141-0.09,7.425-3.521,7.334-7.661L206.883,456.241z"/>
	</g>
</g>
<g>
	<g>
		<path d="M319.244,152.305c-0.056-0.001-0.111-0.002-0.167-0.002c-4.066,0-7.406,3.251-7.495,7.337l-6.815,312.633
			c-0.09,4.141,3.193,7.571,7.334,7.661c0.056,0.001,0.111,0.002,0.167,0.002c4.066,0,7.406-3.251,7.495-7.337l6.815-312.633
			C326.669,155.825,323.385,152.395,319.244,152.305z"/>
	</g>
</g>
<g>
	<g>
		<path d="M320.292,104.207c-4.153-0.049-7.571,3.193-7.661,7.335l-0.349,16.032c-0.09,4.141,3.194,7.571,7.335,7.661
			c0.056,0.001,0.111,0.002,0.166,0.002c4.066,0,7.406-3.251,7.495-7.337l0.349-16.032
			C327.717,107.728,324.434,104.297,320.292,104.207z"/>
	</g>
</g>
<g>
	<g>
		<path d="M256,104.21c-4.142,0-7.5,3.357-7.5,7.5v360.726c0,4.143,3.358,7.5,7.5,7.5c4.142,0,7.5-3.357,7.5-7.5V111.71
			C263.5,107.567,260.142,104.21,256,104.21z"/>
	</g>
</g>
<g>
</g>
<g>
</g>
<g>
</g>
<g>
</g>
<g>
</g>
<g>
</g>
<g>
</g>
<g>
</g>
<g>
</g>
<g>
</g>
<g>
</g>
<g>
</g>
<g>
</g>
<g>
</g>
<g>
</g>
</svg>
