<?xml version="1.0" encoding="iso-8859-1"?>
<!-- Generator: Adobe Illustrator 19.0.0, SVG Export Plug-In . SVG Version: 6.00 Build 0)  -->
<svg version="1.1" id="Capa_1" xmlns="http://www.w3.org/2000/svg" xmlns:xlink="http://www.w3.org/1999/xlink" x="0px" y="0px"
	 viewBox="0 0 512 512" style="enable-background:new 0 0 512 512;" xml:space="preserve">
<g>
	<g>
		<path d="M504.843,72.607L439.386,7.15c-9.534-9.534-25.048-9.533-34.582,0L281.561,130.392c-3.086,3.087-3.086,8.089,0,11.176
			c3.086,3.085,8.089,3.085,11.175,0L415.978,18.326c1.634-1.634,3.806-2.533,6.116-2.533s4.482,0.899,6.116,2.533l65.458,65.457
			c1.633,1.633,2.533,3.805,2.533,6.116c0,2.31-0.9,4.482-2.533,6.115l-16.064,16.064L435.515,69.99
			c-3.086-3.085-8.089-3.085-11.175,0c-3.086,3.087-3.086,8.089,0,11.176l42.088,42.088l-18.353,18.353l-18.498-18.498
			c-3.086-3.085-8.089-3.085-11.175,0c-3.086,3.087-3.086,8.089,0,11.176l18.498,18.497l-18.353,18.353l-18.498-18.498
			c-3.086-3.085-8.089-3.085-11.175,0c-3.086,3.087-3.086,8.089,0,11.176l18.498,18.497l-18.353,18.353l-42.089-42.09
			c-3.085-3.084-8.089-3.086-11.175,0c-3.086,3.087-3.086,8.089,0,11.176l42.089,42.089l-18.353,18.353l-18.498-18.498
			c-3.086-3.085-8.089-3.085-11.175,0c-3.086,3.087-3.086,8.089,0,11.176l18.497,18.497l-15.526,15.526L255.1,179.203l14.45-14.451
			c3.086-3.087,3.086-8.089,0-11.176c-3.086-3.085-8.089-3.085-11.175,0l-14.451,14.451L98.156,22.264
			C88.018,12.126,74.539,6.543,60.202,6.543c-14.337,0.001-27.816,5.584-37.953,15.722C12.11,32.403,6.527,45.881,6.527,60.219
			c0,14.337,5.583,27.816,15.721,37.954l145.765,145.765L7.157,404.797c-9.534,9.535-9.534,25.048,0,34.583l65.457,65.458
			C77.232,509.456,83.373,512,89.905,512c6.532,0,12.673-2.544,17.291-7.162L268.054,343.98l11.457,11.457
			c3.086,3.085,8.089,3.085,11.175,0c3.086-3.087,3.086-8.089,0-11.176l-15.814-15.814c-0.307-0.486-0.667-0.948-1.09-1.371
			c-0.423-0.423-0.885-0.783-1.37-1.09L101.189,154.763l21.191-21.191l13.102,13.102c1.543,1.542,3.565,2.314,5.588,2.314
			s4.045-0.772,5.588-2.314c3.086-3.087,3.086-8.089,0-11.176l-13.101-13.101l21.191-21.191l83.579,83.579
			c0.003,0.004,0.006,0.007,0.01,0.011c0.004,0.004,0.007,0.006,0.011,0.01l88.081,88.081c0.218,0.288,0.45,0.57,0.713,0.833
			s0.544,0.495,0.832,0.713l117.268,117.268l-21.191,21.191L305.735,294.576c-0.071-0.077-0.135-0.158-0.21-0.232l-47.182-47.183
			c-0.078-0.078-0.163-0.146-0.243-0.22l-83.343-83.342c-3.086-3.085-8.089-3.085-11.175,0c-3.086,3.087-3.086,8.089,0,11.176
			l249.291,249.291l-21.192,21.191l-75.096-75.097c-3.086-3.085-8.089-3.085-11.175,0c-3.086,3.087-3.086,8.089,0,11.176
			l80.684,80.684c0.767,0.767,1.717,1.386,2.728,1.778l95.478,37.069c1.506,0.584,3.076,0.868,4.634,0.868
			c3.342,0,6.624-1.308,9.073-3.759c3.591-3.593,4.721-8.973,2.88-13.707l-37.108-95.434c-0.392-1.008-1.011-1.96-1.777-2.725
			L343.963,268.071l160.88-160.881C514.378,97.655,514.378,82.142,504.843,72.607z M256.882,332.805l-15.507,15.503l-18.498-18.498
			c-3.086-3.085-8.089-3.085-11.175,0c-3.086,3.087-3.086,8.089,0,11.176l18.498,18.498l-18.353,18.353l-42.089-42.089
			c-3.086-3.085-8.089-3.085-11.175,0c-3.086,3.087-3.086,8.089,0,11.176l42.089,42.089l-18.353,18.353l-18.498-18.498
			c-3.086-3.085-8.089-3.085-11.175,0c-3.086,3.087-3.086,8.089,0,11.176l18.498,18.497l-18.353,18.353l-18.498-18.498
			c-3.086-3.085-8.089-3.085-11.175,0c-3.086,3.087-3.086,8.089,0,11.176l18.498,18.498l-18.353,18.353l-42.089-42.089
			c-3.086-3.085-8.089-3.085-11.175,0c-3.086,3.087-3.086,8.089,0,11.176l42.089,42.088l-16.064,16.064
			c-1.634,1.634-3.806,2.534-6.116,2.534s-4.482-0.9-6.116-2.534l-65.457-65.458c-3.372-3.372-3.372-8.859,0-12.231l160.857-160.858
			L256.882,332.805z M33.423,86.998c-14.766-14.766-14.766-38.792,0-53.558c14.766-14.767,38.792-14.767,53.558,0l24.976,24.976
			l-53.558,53.558L33.423,86.998z M116.798,116.803c-0.002,0.002-0.004,0.003-0.005,0.005c-0.002,0.002-0.003,0.004-0.005,0.005
			l-26.774,26.774l-20.439-20.439l53.558-53.558l20.439,20.439L116.798,116.803z M483.703,483.681l-77.864-30.229l47.601-47.601
			L483.703,483.681z"/>
	</g>
</g>
<g>
</g>
<g>
</g>
<g>
</g>
<g>
</g>
<g>
</g>
<g>
</g>
<g>
</g>
<g>
</g>
<g>
</g>
<g>
</g>
<g>
</g>
<g>
</g>
<g>
</g>
<g>
</g>
<g>
</g>
</svg>
