<?xml version="1.0" encoding="iso-8859-1"?>
<!-- Generator: Adobe Illustrator 18.0.0, SVG Export Plug-In . SVG Version: 6.00 Build 0)  -->
<!DOCTYPE svg PUBLIC "-//W3C//DTD SVG 1.1//EN" "http://www.w3.org/Graphics/SVG/1.1/DTD/svg11.dtd">
<svg version="1.1" id="Capa_1" xmlns="http://www.w3.org/2000/svg" xmlns:xlink="http://www.w3.org/1999/xlink" x="0px" y="0px"
	 viewBox="0 0 452.161 452.161" style="enable-background:new 0 0 452.161 452.161;" xml:space="preserve">
<path d="M440.392,43.396L414.276,17.28c-4.686-4.687-10.915-7.267-17.542-7.267s-12.856,2.58-17.541,7.266l-7.361,7.36l-0.579-0.579
	c-2.768-2.767-6.446-4.29-10.359-4.29s-7.592,1.523-10.359,4.29l-25.101,25.101l-7.242-7.242L350.211,9.9l-9.9-9.9L166.713,173.598
	c-9.472,9.473-23.001,13.724-36.188,11.383l-2.451,13.783c3.203,0.57,6.421,0.849,9.619,0.849c14.462,0,28.515-5.711,38.919-16.114
	l131.68-131.679l7.242,7.242L94.73,279.866c-24.031,24.031-43.168,51.983-56.878,83.08l-24.279,55.062l7.597,7.597L4.514,442.261
	l9.899,9.9l16.656-16.656l8.601,8.601l55.063-24.278c31.097-13.712,59.049-32.849,83.079-56.878l255.806-255.807
	c5.711-5.713,5.711-15.007,0-20.719l-0.584-0.584l7.36-7.36C450.065,68.808,450.065,53.069,440.392,43.396z M89.085,407.018
	l-46.292,20.411l-12.543-12.542l20.412-46.292c5.098-11.563,10.999-22.661,17.648-33.263l54.038,54.038
	C111.745,396.019,100.648,401.919,89.085,407.018z M167.913,353.05c-10.465,10.465-21.724,19.94-33.685,28.4l-57.998-57.998
	c8.46-11.962,17.935-23.22,28.4-33.685L345.051,49.346l63.283,63.283L167.913,353.05z M423.718,97.244l-5.484,5.484l-63.283-63.283
	l5.484-5.484c0.252-0.254,0.666-0.254,0.918,0l62.364,62.364C423.971,96.578,423.971,96.991,423.718,97.244z M430.493,68.58
	l-7.36,7.36l-41.401-41.401l7.361-7.36c2.041-2.041,4.755-3.165,7.642-3.165s5.601,1.124,7.643,3.166l26.116,26.115
	C434.707,57.51,434.707,64.367,430.493,68.58z"/>
<g>
</g>
<g>
</g>
<g>
</g>
<g>
</g>
<g>
</g>
<g>
</g>
<g>
</g>
<g>
</g>
<g>
</g>
<g>
</g>
<g>
</g>
<g>
</g>
<g>
</g>
<g>
</g>
<g>
</g>
</svg>
