<?xml version="1.0" encoding="UTF-8" standalone="no"?>
<svg
   xmlns:dc="http://purl.org/dc/elements/1.1/"
   xmlns:cc="http://creativecommons.org/ns#"
   xmlns:rdf="http://www.w3.org/1999/02/22-rdf-syntax-ns#"
   xmlns:svg="http://www.w3.org/2000/svg"
   xmlns="http://www.w3.org/2000/svg"
   xmlns:sodipodi="http://sodipodi.sourceforge.net/DTD/sodipodi-0.dtd"
   xmlns:inkscape="http://www.inkscape.org/namespaces/inkscape"
   width="60"
   height="43"
   viewBox="0 0 60 43"
   version="1.1"
   id="svg10"
   sodipodi:docname="docker-logo.svg"
   inkscape:version="0.92.3 (2405546, 2018-03-11)">
  <metadata
     id="metadata16">
    <rdf:RDF>
      <cc:Work
         rdf:about="">
        <dc:format>image/svg+xml</dc:format>
        <dc:type
           rdf:resource="http://purl.org/dc/dcmitype/StillImage" />
      </cc:Work>
    </rdf:RDF>
  </metadata>
  <defs
     id="defs14" />
  <sodipodi:namedview
     pagecolor="#ffffff"
     bordercolor="#666666"
     borderopacity="1"
     objecttolerance="10"
     gridtolerance="10"
     guidetolerance="10"
     inkscape:pageopacity="0"
     inkscape:pageshadow="2"
     inkscape:window-width="819"
     inkscape:window-height="531"
     id="namedview12"
     showgrid="false"
     inkscape:zoom="5.4883721"
     inkscape:cx="30"
     inkscape:cy="21.5"
     inkscape:window-x="639"
     inkscape:window-y="185"
     inkscape:window-maximized="0"
     inkscape:current-layer="svg10" />
  <title
     id="title2">logo copy</title>
  <g
     id="g8"
     style="fill:#008bba;fill-rule:evenodd;opacity:1;fill-opacity:1">
    <path
       d="m 3.757,15.768 h 6.04 v 5.873 H 3.757 V 15.77 Z m 7.413,0 h 6.04 v 5.873 H 11.17 V 15.77 Z m 0,-7.528 h 6.04 v 5.87 h -6.04 z m 7.41,7.528 h 6.043 v 5.873 H 18.58 V 15.77 Z m 0,-7.528 h 6.043 v 5.87 H 18.58 Z m 7.413,7.528 h 6.042 v 5.873 H 25.993 V 15.77 Z m 0,-7.528 h 6.042 v 5.87 h -6.042 z m 7.412,7.528 h 6.042 v 5.873 H 33.405 V 15.77 Z M 25.993,0.708 h 6.042 V 6.58 H 25.993 Z M 12.194,30.12 c -0.93,0 -1.684,0.733 -1.684,1.636 0,0.902 0.755,1.635 1.684,1.635 0.928,0 1.683,-0.732 1.683,-1.634 0,-0.903 -0.755,-1.637 -1.683,-1.637"
       id="path4"
       inkscape:connector-curvature="0"
       style="fill:#008bba;fill-opacity:1" />
    <path
       d="m 58.905,18.806 c -2.03,-1.138 -4.73,-1.294 -7.03,-0.636 -0.283,-2.377 -1.89,-4.46 -3.8,-5.953 l -0.758,-0.593 -0.638,0.716 c -1.28,1.438 -1.66,3.83 -1.487,5.666 0.13,1.35 0.565,2.722 1.42,3.806 -0.65,0.38 -1.388,0.682 -2.045,0.9 -1.34,0.44 -2.795,0.685 -4.21,0.685 H 0.613 l -0.085,0.89 c -0.285,2.972 0.134,5.947 1.398,8.66 l 0.544,1.078 0.062,0.1 c 3.737,6.17 10.3,8.768 17.452,8.768 13.846,0 25.265,-6.01 30.51,-18.708 3.505,0.178 7.09,-0.83 8.805,-4.083 l 0.437,-0.83 -0.832,-0.466 z m -46.71,16.056 c -1.764,0 -3.198,-1.394 -3.198,-3.106 0,-1.713 1.434,-3.107 3.197,-3.107 1.763,0 3.197,1.393 3.197,3.106 0,1.712 -1.433,3.106 -3.196,3.106 z"
       id="path6"
       inkscape:connector-curvature="0"
       style="fill:#008bba;fill-opacity:1" />
  </g>
</svg>
